<svg height="1646" width="720" xmlns="http://www.w3.org/2000/svg">
<rect height="1646" fill="#555" width="720"></rect>
<text fill="#7f7" font-family="Courier New" font-size="12" xml:space="preserve">
<tspan x="10" y="26">8 megabytes installed</tspan>
<tspan x="10" y="42"></tspan>
<tspan x="10" y="58">node_modules</tspan>
<tspan x="10" y="74">└─┬ glslify@6.0.2 </tspan>
<tspan x="10" y="90">  ├─┬ bl@1.2.0 </tspan>
<tspan x="10" y="106">  │ └─┬ readable-stream@2.2.9 </tspan>
<tspan x="10" y="122">  │   ├── buffer-shims@1.0.0 </tspan>
<tspan x="10" y="138">  │   ├── core-util-is@1.0.2 </tspan>
<tspan x="10" y="154">  │   ├── isarray@1.0.0 </tspan>
<tspan x="10" y="170">  │   ├── process-nextick-args@1.0.7 </tspan>
<tspan x="10" y="186">  │   ├── string_decoder@1.0.0 </tspan>
<tspan x="10" y="202">  │   └── util-deprecate@1.0.2 </tspan>
<tspan x="10" y="218">  ├─┬ concat-stream@1.6.0 </tspan>
<tspan x="10" y="234">  │ ├── inherits@2.0.3 </tspan>
<tspan x="10" y="250">  │ └── typedarray@0.0.6 </tspan>
<tspan x="10" y="266">  ├─┬ duplexify@3.5.0 </tspan>
<tspan x="10" y="282">  │ ├─┬ end-of-stream@1.0.0 </tspan>
<tspan x="10" y="298">  │ │ └─┬ once@1.3.3 </tspan>
<tspan x="10" y="314">  │ │   └── wrappy@1.0.2 </tspan>
<tspan x="10" y="330">  │ └── stream-shift@1.0.0 </tspan>
<tspan x="10" y="346">  ├─┬ falafel@2.1.0 </tspan>
<tspan x="10" y="362">  │ ├── acorn@5.0.3 </tspan>
<tspan x="10" y="378">  │ ├── foreach@2.0.5 </tspan>
<tspan x="10" y="394">  │ ├── isarray@0.0.1 </tspan>
<tspan x="10" y="410">  │ └── object-keys@1.0.11 </tspan>
<tspan x="10" y="426">  ├── from2@2.3.0 </tspan>
<tspan x="10" y="442">  ├─┬ glsl-resolve@0.0.1 </tspan>
<tspan x="10" y="458">  │ ├── resolve@0.6.3 </tspan>
<tspan x="10" y="474">  │ └── xtend@2.2.0 </tspan>
<tspan x="10" y="490">  ├── glsl-token-whitespace-trim@1.0.0 </tspan>
<tspan x="10" y="506">  ├─┬ glslify-bundle@5.0.0 </tspan>
<tspan x="10" y="522">  │ ├─┬ glsl-inject-defines@1.0.3 </tspan>
<tspan x="10" y="538">  │ │ └── glsl-token-inject-block@1.1.0 </tspan>
<tspan x="10" y="554">  │ ├── glsl-token-defines@1.0.0 </tspan>
<tspan x="10" y="570">  │ ├── glsl-token-depth@1.1.2 </tspan>
<tspan x="10" y="586">  │ ├─┬ glsl-token-descope@1.0.2 </tspan>
<tspan x="10" y="602">  │ │ ├── glsl-token-assignments@2.0.2 </tspan>
<tspan x="10" y="618">  │ │ └── glsl-token-properties@1.0.1 </tspan>
<tspan x="10" y="634">  │ ├── glsl-token-scope@1.1.2 </tspan>
<tspan x="10" y="650">  │ ├── glsl-token-string@1.0.1 </tspan>
<tspan x="10" y="666">  │ ├─┬ glsl-tokenizer@2.1.2 </tspan>
<tspan x="10" y="682">  │ │ └─┬ through2@0.6.5 </tspan>
<tspan x="10" y="698">  │ │   └─┬ readable-stream@1.0.34 </tspan>
<tspan x="10" y="714">  │ │     ├── isarray@0.0.1 </tspan>
<tspan x="10" y="730">  │ │     └── string_decoder@0.10.31 </tspan>
<tspan x="10" y="746">  │ ├── murmurhash-js@1.0.0 </tspan>
<tspan x="10" y="762">  │ └── shallow-copy@0.0.1 </tspan>
<tspan x="10" y="778">  ├─┬ glslify-deps@1.3.0 </tspan>
<tspan x="10" y="794">  │ ├── events@1.1.1 </tspan>
<tspan x="10" y="810">  │ ├─┬ findup@0.1.5 </tspan>
<tspan x="10" y="826">  │ │ ├── colors@0.6.2 </tspan>
<tspan x="10" y="842">  │ │ └── commander@2.1.0 </tspan>
<tspan x="10" y="858">  │ ├── graceful-fs@4.1.11 </tspan>
<tspan x="10" y="874">  │ └── map-limit@0.0.1 </tspan>
<tspan x="10" y="890">  ├── minimist@1.2.0 </tspan>
<tspan x="10" y="906">  ├─┬ resolve@1.3.3 </tspan>
<tspan x="10" y="922">  │ └── path-parse@1.0.5 </tspan>
<tspan x="10" y="938">  ├── stack-trace@0.0.9 </tspan>
<tspan x="10" y="954">  ├─┬ static-eval@1.1.1 </tspan>
<tspan x="10" y="970">  │ └─┬ escodegen@1.8.1 </tspan>
<tspan x="10" y="986">  │   ├── esprima@2.7.3 </tspan>
<tspan x="10" y="1002">  │   ├── estraverse@1.9.3 </tspan>
<tspan x="10" y="1018">  │   ├── esutils@2.0.2 </tspan>
<tspan x="10" y="1034">  │   ├─┬ optionator@0.8.2 </tspan>
<tspan x="10" y="1050">  │   │ ├── deep-is@0.1.3 </tspan>
<tspan x="10" y="1066">  │   │ ├── fast-levenshtein@2.0.6 </tspan>
<tspan x="10" y="1082">  │   │ ├── levn@0.3.0 </tspan>
<tspan x="10" y="1098">  │   │ ├── prelude-ls@1.1.2 </tspan>
<tspan x="10" y="1114">  │   │ ├── type-check@0.3.2 </tspan>
<tspan x="10" y="1130">  │   │ └── wordwrap@1.0.0 </tspan>
<tspan x="10" y="1146">  │   └─┬ source-map@0.2.0 </tspan>
<tspan x="10" y="1162">  │     └── amdefine@1.0.1 </tspan>
<tspan x="10" y="1178">  ├─┬ tape@4.6.3 </tspan>
<tspan x="10" y="1194">  │ ├── deep-equal@1.0.1 </tspan>
<tspan x="10" y="1210">  │ ├── defined@1.0.0 </tspan>
<tspan x="10" y="1226">  │ ├─┬ for-each@0.3.2 </tspan>
<tspan x="10" y="1242">  │ │ └── is-function@1.0.1 </tspan>
<tspan x="10" y="1258">  │ ├── function-bind@1.1.0 </tspan>
<tspan x="10" y="1274">  │ ├─┬ glob@7.1.1 </tspan>
<tspan x="10" y="1290">  │ │ ├── fs.realpath@1.0.0 </tspan>
<tspan x="10" y="1306">  │ │ ├── inflight@1.0.6 </tspan>
<tspan x="10" y="1322">  │ │ ├─┬ minimatch@3.0.3 </tspan>
<tspan x="10" y="1338">  │ │ │ └─┬ brace-expansion@1.1.7 </tspan>
<tspan x="10" y="1354">  │ │ │   ├── balanced-match@0.4.2 </tspan>
<tspan x="10" y="1370">  │ │ │   └── concat-map@0.0.1 </tspan>
<tspan x="10" y="1386">  │ │ └── path-is-absolute@1.0.1 </tspan>
<tspan x="10" y="1402">  │ ├── has@1.0.1 </tspan>
<tspan x="10" y="1418">  │ ├── object-inspect@1.2.2 </tspan>
<tspan x="10" y="1434">  │ ├── resolve@1.1.7 </tspan>
<tspan x="10" y="1450">  │ ├── resumer@0.0.0 </tspan>
<tspan x="10" y="1466">  │ ├─┬ string.prototype.trim@1.1.2 </tspan>
<tspan x="10" y="1482">  │ │ ├── define-properties@1.1.2 </tspan>
<tspan x="10" y="1498">  │ │ └─┬ es-abstract@1.7.0 </tspan>
<tspan x="10" y="1514">  │ │   ├─┬ es-to-primitive@1.1.1 </tspan>
<tspan x="10" y="1530">  │ │   │ ├── is-date-object@1.0.1 </tspan>
<tspan x="10" y="1546">  │ │   │ └── is-symbol@1.0.1 </tspan>
<tspan x="10" y="1562">  │ │   ├── is-callable@1.1.3 </tspan>
<tspan x="10" y="1578">  │ │   └── is-regex@1.0.4 </tspan>
<tspan x="10" y="1594">  │ └── through@2.3.8 </tspan>
<tspan x="10" y="1610">  ├── through2@2.0.3 </tspan>
<tspan x="10" y="1626">  └── xtend@4.0.1</tspan>
</text>
</svg>
